<?xml version="1.0" encoding="UTF-8"?>
<svg width="32px" height="32px" viewBox="0 0 32 32" version="1.1" xmlns="http://www.w3.org/2000/svg" xmlns:xlink="http://www.w3.org/1999/xlink">
    <!-- Generator: Sketch 60.1 (88133) - https://sketch.com -->
    <title>Icons / Analytics</title>
    <desc>Created with Sketch.</desc>
    <g id="Icons-/-Analytics" stroke="none" stroke-width="1" fill="none" fill-rule="evenodd">
        <g id="analysis" transform="translate(1.000000, 0.000000)" fill-rule="nonzero">
            <path d="M5,32 L1,32 C0.44771525,32 0,31.5522847 0,31 L0,24 C0,23.4477153 0.44771525,23 1,23 L5,23 C5.55228475,23 6,23.4477153 6,24 L6,31 C6,31.5522847 5.55228475,32 5,32 Z M2,30 L4,30 L4,25 L2,25 L2,30 Z" id="Shape" fill="#031536"></path>
            <path d="M13,32 L9,32 C8.44771525,32 8,31.5522847 8,31 L8,18 C8,17.4477153 8.44771525,17 9,17 L13,17 C13.5522847,17 14,17.4477153 14,18 L14,31 C14,31.5522847 13.5522847,32 13,32 Z M10,30 L12,30 L12,19 L10,19 L10,30 Z" id="Shape" fill="#031536"></path>
            <path d="M29,32 L25,32 C24.4477153,32 24,31.5522847 24,31 L24,18 C24,17.4477153 24.4477153,17 25,17 L29,17 C29.5522847,17 30,17.4477153 30,18 L30,31 C30,31.5522847 29.5522847,32 29,32 Z M26,30 L28,30 L28,19 L26,19 L26,30 Z" id="Shape" fill="#031536"></path>
            <path d="M21,32 L17,32 C16.4477153,32 16,31.5522847 16,31 L16,24 C16,23.4477153 16.4477153,23 17,23 L21,23 C21.5522847,23 22,23.4477153 22,24 L22,31 C22,31.5522847 21.5522847,32 21,32 Z M18,30 L20,30 L20,25 L18,25 L18,30 Z" id="Shape" fill="#031536"></path>
            <path d="M29,1.63 C27.8169785,0.49855897 25.9530215,0.49855897 24.77,1.63 C23.9096782,2.5337966 23.6986278,3.87575894 24.24,5 L19.06,10.2 C18.2522979,9.8207734 17.3177021,9.8207734 16.51,10.2 L14.85,8.54 C15.0366192,8.13882036 15.135487,7.70243807 15.14,7.26 C15.1393133,6.46951436 14.8266618,5.71124472 14.27,5.15 C13.0869785,4.01855897 11.2230215,4.01855897 10.04,5.15 C9.13694803,6.03726254 8.90328481,7.40298379 9.46,8.54 L4.28,13.72 C3.14237975,13.1795664 1.78832219,13.4072398 0.89,14.29 C0.323560577,14.8504278 0.00334847986,15.6131802 0,16.41 C0.000686713133,17.2004856 0.313338179,17.9587553 0.87,18.52 C1.43451724,19.085225 2.20115385,19.4019575 3,19.400009 C4.02239968,19.3939006 4.9713019,18.867527 5.51772266,18.0033726 C6.06414342,17.1392183 6.13284176,16.0562755 5.7,15.13 L10.88,10 C11.2749244,10.1955182 11.709331,10.2981339 12.15,10.3 C12.593842,10.2979018 13.0314485,10.1953377 13.43,10 L15.09,11.66 C14.8965913,12.0592378 14.7941313,12.4964003 14.79,12.94 C14.79,14.5968542 16.1331458,15.94 17.79,15.94 C18.8106196,15.9305209 19.7564021,15.4027838 20.3004398,14.5391998 C20.8444775,13.6756158 20.912125,12.5946742 20.48,11.67 L25.66,6.49 C26.5846742,6.92212496 27.6656158,6.85447751 28.5291998,6.31043982 C29.3927838,5.76640214 29.9205209,4.82061964 29.9301401,3.8 C29.9380303,2.97825361 29.6005959,2.19090659 29,1.63 Z M3.71,17.11 C3.32115649,17.4911429 2.69884351,17.4911429 2.31,17.11 C1.92885712,16.7211565 1.92885712,16.0988435 2.31,15.71 C2.49231562,15.5194096 2.74631493,15.4141813 3.01,15.42 C3.27233988,15.4211046 3.52373936,15.5252558 3.71,15.71 C4.09114288,16.0988435 4.09114288,16.7211565 3.71,17.11 L3.71,17.11 Z M11.45,8 C11.0688571,7.61115649 11.0688571,6.98884351 11.45,6.6 C11.8375966,6.22534631 12.4524034,6.22534631 12.84,6.6 L12.84,6.6 C13.125655,6.99676726 13.0825485,7.54190788 12.7380855,7.88884913 C12.3936224,8.23579038 11.8488047,8.28280352 11.45,8 Z M18.45,13.63 C18.0611565,14.0111429 17.4388435,14.0111429 17.05,13.63 C16.7767124,13.3435413 16.6981571,12.9228238 16.8496614,12.5570491 C17.0011657,12.1912744 17.3541998,11.9493217 17.75,11.94 C18.1458002,11.9493217 18.4988343,12.1912744 18.6503386,12.5570491 C18.8018429,12.9228238 18.7232876,13.3435413 18.45,13.63 Z M27.6,4.48 C27.2111565,4.86114288 26.5888435,4.86114288 26.2,4.48 C26.0152558,4.29373936 25.9111046,4.04233988 25.91,3.78 C25.91,3.22771525 26.3577153,2.78 26.91,2.78 C27.3058002,2.7893217 27.6588343,3.03127442 27.8103386,3.39704911 C27.9618429,3.7628238 27.8832876,4.18354135 27.61,4.47 L27.6,4.48 Z" id="Shape" fill="#2E72F6"></path>
        </g>
    </g>
</svg>