<?xml version="1.0" encoding="UTF-8"?>
<svg width="32px" height="32px" viewBox="0 0 32 32" version="1.1" xmlns="http://www.w3.org/2000/svg" xmlns:xlink="http://www.w3.org/1999/xlink">
    <!-- Generator: Sketch 60.1 (88133) - https://sketch.com -->
    <title>Icons / Databases</title>
    <desc>Created with Sketch.</desc>
    <g id="Icons-/-Databases" stroke="none" stroke-width="1" fill="none" fill-rule="evenodd">
        <g id="databases" transform="translate(1.000000, 0.000000)" fill-rule="nonzero">
            <path d="M19,11.92 C18.51,11.92 18,11.92 17.57,11.92 L17.64,9.92 C18.09,9.92 18.54,9.92 19,9.92 C23.86,9.92 26.7,9.05 27.07,8.6 C27.0195202,8.67323287 26.994889,8.76120171 27,8.85 L29,8.85 C29,11.77 20.67,11.92 19,11.92 Z" id="Path" fill="#2E72F6"></path>
            <path d="M20,17.45 C19.4477153,17.45 19,17.0022847 19,16.45 C19,15.8977153 19.4477153,15.45 20,15.45 C24.16,15.34 26.57,14.6 27.05,14.19 C27.1024671,13.6377153 27.5927153,13.2325329 28.145,13.285 C28.6972847,13.3374671 29.1024671,13.8277153 29.05,14.38 C29.05,16.94 22.77,17.38 20.05,17.45 L20,17.45 Z" id="Path" fill="#2E72F6"></path>
            <path d="M11,20.92 C9.33,20.92 1,20.77 1,17.85 C0.944771525,17.2977153 1.34771525,16.8052285 1.9,16.75 C2.45228475,16.6947715 2.94477153,17.0977153 3,17.65 C3.53,18.11 6.34,18.92 11,18.92 C15.66,18.92 18.49,18.11 19,17.65 C19.0357266,17.2927344 19.2593382,16.9816673 19.5866025,16.8339746 C19.9138669,16.6862819 20.2950647,16.7244017 20.5866025,16.9339746 C20.8781403,17.1435475 21.0357266,17.4927344 21,17.85 C21,20.77 12.67,20.92 11,20.92 Z" id="Path" fill="#2E72F6"></path>
            <path d="M11,26.46 C9.33,26.46 1,26.31 1,23.38 C0.947532949,22.8277153 1.35271525,22.3374671 1.905,22.285 C2.45728475,22.2325329 2.94753295,22.6377153 3,23.19 C3.53,23.65 6.34,24.46 11,24.46 C15.66,24.46 18.49,23.65 19,23.19 C19.0524671,22.6377153 19.5427153,22.2325329 20.095,22.285 C20.6472847,22.3374671 21.0524671,22.8277153 21,23.38 C21,26.31 12.67,26.46 11,26.46 Z" id="Path" fill="#2E72F6"></path>
            <path d="M19,0.23 C17.33,0.23 9,0.38 9,3.31 L9,9.31 C6,9.46 1,10.06 1,12.31 L1,28.92 C1,31.85 9.33,32 11,32 C12.67,32 21,31.85 21,28.92 L21,23 C24,22.85 29,22.26 29,20 L29,3.31 C29,0.38 20.67,0.23 19,0.23 Z M26.69,3.31 C25.69,3.77 23.07,4.38 19,4.38 C14.93,4.38 12.28,3.77 11.31,3.31 C12.31,2.84 14.93,2.23 19,2.23 C23.07,2.23 25.72,2.84 26.69,3.31 Z M11,11.23 C15.07,11.23 17.72,11.84 18.69,12.31 C17.69,12.77 15.07,13.38 11,13.38 C6.93,13.38 4.28,12.77 3.31,12.31 C4.28,11.84 6.93,11.23 11,11.23 Z M19,28.74 C18.42,29.21 15.63,30 11,30 C6.37,30 3.58,29.21 3,28.74 L3,14.32 C5.57,15.32 9.85,15.38 11,15.38 C12.15,15.38 16.43,15.31 19,14.32 L19,28.74 Z M21,20.94 L21,12.31 C21,9.38 12.67,9.23 11,9.23 L11,5.32 C13.57,6.32 17.85,6.38 19,6.38 C20.15,6.38 24.43,6.31 27,5.32 L27,19.74 C26.52,20.12 24.47,20.75 21,20.94 Z" id="Shape" fill="#031536"></path>
        </g>
    </g>
</svg>