<?xml version="1.0" encoding="UTF-8"?>
<svg width="588px" height="140px" viewBox="0 0 588 140" version="1.1" xmlns="http://www.w3.org/2000/svg" xmlns:xlink="http://www.w3.org/1999/xlink">
    <!-- Generator: Sketch 60.1 (88133) - https://sketch.com -->
    <title>Group Copy</title>
    <desc>Created with Sketch.</desc>
    <g id="Page-1" stroke="none" stroke-width="1" fill="none" fill-rule="evenodd">
        <g id="FINAL-LOGO" transform="translate(-106.000000, -230.000000)">
            <g id="Group-Copy" transform="translate(106.000000, 228.000000)">
                <path d="M304.441534,61.2766935 L315.448702,95.3687138 L333.182804,47.8011587 L349.018234,47.8011587 L322.777496,117.707068 L308.643393,117.707068 L298.759627,87.3468115 C297.484517,83.4300207 297.591359,79.1943831 299.062319,75.3468604 L304.441534,61.2766935 L304.441534,61.2766935 Z M208.701327,25.2 L224.536757,25.2 L224.536757,117.18146 L208.701327,117.18146 L208.701327,25.2 Z M354.318177,25.2 L370.153606,25.2 L370.153606,58.5761298 C374.603231,52.0060255 381.015926,46.3557358 391.747374,46.3557358 C407.321062,46.3557358 416.351183,56.8679027 416.351183,73.0303592 L416.351183,117.18146 L400.515753,117.18146 L400.515753,77.7608343 C400.515753,66.9858633 395.150029,60.8099652 385.727294,60.8099652 C376.566301,60.8099652 370.153606,67.2486674 370.153606,78.0236385 L370.153606,117.18146 L354.318177,117.18146 L354.318177,25.2 Z M571.56457,25.2 L587.4,25.2 L587.4,117.18146 L571.56457,117.18146 L571.56457,25.2 Z M135,117.18146 L135,25.2 L199.583958,25.2 L199.583958,39.9170336 L151.097173,39.9170336 L151.097173,65.014832 L193.694749,65.014832 L193.694749,79.7318656 L151.097173,79.7318656 L151.097173,117.18146 L135,117.18146 Z M250.623774,138.6 L235.777783,138.6 L240.577783,125.196987 L248.922447,125.196987 C253.372072,125.196987 256.120369,123.225956 258.737796,117.18146 L229.946105,47.8011587 L246.828505,47.8011587 L266.459204,99.3107764 L284.388575,47.8011587 L300.878361,47.8011587 L273.395384,119.152491 C267.898788,133.343917 261.747836,138.6 250.623774,138.6 Z M459.495095,118.758285 C439.471783,118.758285 424.028967,104.172654 424.028967,82.4913094 C424.028967,62.6495944 438.032198,46.3557358 457.793768,46.3557358 C479.78015,46.3557358 490.904212,63.7008111 490.904212,83.6739282 C490.904212,84.7251448 490.773341,87.3531866 490.64247,88.1415991 L439.864397,88.1415991 C441.565724,99.4421784 449.548875,105.749479 459.756838,105.749479 C467.478246,105.749479 472.974841,102.858633 478.471437,97.4711472 L487.763301,105.749479 C481.219735,113.633604 472.189613,118.758285 459.495095,118.758285 Z M439.733526,77.6294322 L475.199654,77.6294322 C474.152683,67.3800695 468.132602,59.3645423 457.662897,59.3645423 C447.978419,59.3645423 441.17311,66.8544612 439.733526,77.6294322 Z M531.997807,118.758285 C511.974495,118.758285 496.531679,104.172654 496.531679,82.4913094 C496.531679,62.6495944 510.534911,46.3557358 530.29648,46.3557358 C552.282862,46.3557358 563.406924,63.7008111 563.406924,83.6739282 C563.406924,84.7251448 563.276053,87.3531866 563.145182,88.1415991 L512.367109,88.1415991 C514.068436,99.4421784 522.051587,105.749479 532.25955,105.749479 C539.980958,105.749479 545.477553,102.858633 550.974149,97.4711472 L560.266013,105.749479 C553.722447,113.633604 544.692325,118.758285 531.997807,118.758285 Z M512.236238,77.6294322 L547.702366,77.6294322 C546.655395,67.3800695 540.635314,59.3645423 530.165609,59.3645423 C520.481131,59.3645423 513.675822,66.8544612 512.236238,77.6294322 Z" id="Combined-Shape" fill="#000000" fill-rule="nonzero"></path>
                <g id="Group-2">
                    <path d="M2.82422846,38.5909052 L92.8242285,2.47805253 C95.1307556,1.55254946 97.7508338,2.6720907 98.6763369,4.97861787 C98.8901366,5.51144698 99,6.08026643 99,6.65438941 L99,34.1982752 C99,36.0365728 97.8818493,37.6900416 96.1757715,38.374612 L6.17577154,74.4874647 C3.86924437,75.4129678 1.24916618,74.2934265 0.323663118,71.9868994 C0.109863353,71.4540703 -4.37058231e-15,70.8852508 0,70.3111278 L0,42.7672421 C1.55123031e-15,40.9289445 1.11815065,39.2754756 2.82422846,38.5909052 Z" id="Rectangle" fill="#083076"></path>
                    <path d="M2.83858846,85.7688654 L80.2385885,55.0201585 C82.5482821,54.1025862 85.164498,55.2311236 86.0820703,57.5408172 C86.2921178,58.0695444 86.4,58.6333066 86.4,59.2022287 L86.4,86.7516742 C86.4,88.5994725 85.2704212,90.2594683 83.5515723,90.9376399 L37.9061493,108.947036 C36.1873003,109.625208 35.0577216,111.285203 35.0577216,113.133002 L35.0577216,137.198486 C35.0577216,139.683768 33.043003,141.698486 30.5577216,141.698486 C29.9529883,141.698486 29.3544587,141.576598 28.7978869,141.340102 L2.74016531,130.267786 C1.0787469,129.561824 -2.44346386e-15,127.931355 0,126.12617 L0,89.9509356 C6.62361264e-16,88.1069986 1.12492755,86.4496516 2.83858846,85.7688654 Z" id="Rectangle-Copy" fill="#2E72F6"></path>
                </g>
            </g>
        </g>
    </g>
</svg>