<?xml version="1.0" encoding="UTF-8"?>
<svg width="100px" height="100px" viewBox="0 0 100 100" version="1.1" xmlns="http://www.w3.org/2000/svg" xmlns:xlink="http://www.w3.org/1999/xlink">
    <!-- Generator: Sketch 60.1 (88133) - https://sketch.com -->
    <title>Collaborate / White BG</title>
    <desc>Created with Sketch.</desc>
    <g id="Collaborate-/-White-BG" stroke="none" stroke-width="1" fill="none" fill-rule="evenodd">
        <g id="collaborate" fill-rule="nonzero">
            <path d="M53.7747525,21.3335396 C58.4990082,19.3066288 61.1471934,14.2376544 60.1125671,9.20212975 C59.0779407,4.16660514 54.6456664,0.552420548 49.5049505,0.552420548 C44.3642346,0.552420548 39.9319602,4.16660514 38.8973339,9.20212975 C37.8627076,14.2376544 40.5108928,19.3066288 45.2351485,21.3335396 C39.4798125,23.1878553 35.5792329,28.5449013 35.581682,34.5915842 L35.581682,37.6856436 L63.428219,37.6856436 L63.428219,34.5915842 C63.4306681,28.5449013 59.5300885,23.1878553 53.7747525,21.3335396 Z" id="Path" fill="#2E72F6"></path>
            <path d="M18.1930693,83.2147277 C22.917325,81.1878169 25.5655102,76.1188425 24.5308839,71.0833179 C23.4962576,66.0477933 19.0639832,62.4336087 13.9232673,62.4336087 C8.78255144,62.4336087 4.35027708,66.0477933 3.31565075,71.0833179 C2.28102441,76.1188425 4.92920961,81.1878169 9.65346535,83.2147277 C3.8981293,85.0690435 -0.00245023643,90.4260894 -1.15371688e-06,96.4727723 L-1.15371688e-06,99.5668317 L27.8465358,99.5668317 L27.8465358,96.4727723 C27.8489849,90.4260894 23.9484054,85.0690435 18.1930693,83.2147277 Z" id="Path" fill="#2E72F6"></path>
            <path d="M89.3564356,83.2147277 C94.0806914,81.1878169 96.7288766,76.1188425 95.6942502,71.0833179 C94.6596239,66.0477933 90.2273495,62.4336087 85.0866337,62.4336087 C79.9459178,62.4336087 75.5136434,66.0477933 74.4790171,71.0833179 C73.4443908,76.1188425 76.0925759,81.1878169 80.8168317,83.2147277 C75.0614956,85.0690435 71.1609161,90.4260894 71.1633652,96.4727723 L71.1633652,99.5668317 L99.0099021,99.5668317 L99.0099021,96.4727723 C99.0123512,90.4260894 95.1117717,85.0690435 89.3564356,83.2147277 Z" id="Path" fill="#2E72F6"></path>
            <path d="M9.9009901,55.677599 C8.61938873,55.677599 7.58044554,54.6386558 7.58044554,53.3570545 C7.62640965,38.5764443 15.4099345,24.8995115 28.0940594,17.3112624 C28.8078735,16.8710664 29.7036579,16.8502602 30.4371398,17.2568403 C31.1706218,17.6634203 31.6276636,18.4341182 31.632653,19.2727353 C31.6375613,20.1113524 31.1896472,20.8873907 30.4610149,21.302599 C19.1840941,28.0528993 12.2641059,40.2142358 12.2215347,53.3570545 C12.2215347,53.9725011 11.9770494,54.5627407 11.5418629,54.9979272 C11.1066764,55.4331138 10.5164368,55.677599 9.9009901,55.677599 L9.9009901,55.677599 Z" id="Path" fill="#031536"></path>
            <path d="M89.1089109,55.677599 C87.8273095,55.677599 86.7883663,54.6386558 86.7883663,53.3570545 C86.7457951,40.2142358 79.8258069,28.0528993 68.5488861,21.302599 C67.8202538,20.8873907 67.3723396,20.1113524 67.3772479,19.2727353 C67.3822374,18.4341182 67.8392792,17.6634203 68.5727612,17.2568403 C69.3062431,16.8502602 70.2020275,16.8710664 70.9158416,17.3112624 C83.5999665,24.8995115 91.3834913,38.5764443 91.4294554,53.3570545 C91.4294554,53.9725011 91.1849702,54.5627407 90.7497837,54.9979272 C90.3145972,55.4331138 89.7243576,55.677599 89.1089109,55.677599 L89.1089109,55.677599 Z" id="Path" fill="#031536"></path>
            <path d="M49.5049505,95.2815594 C45.0536033,95.2904117 40.6296439,94.5852942 36.4016089,93.1930693 C35.1712716,92.7957729 34.4959586,91.476315 34.893255,90.2459777 C35.2905514,89.0156404 36.6100092,88.3403274 37.8403465,88.7376238 C45.4198112,91.2126748 53.5900898,91.2126748 61.1695545,88.7376238 C61.966973,88.443968 62.8611241,88.609659 63.5003781,89.169538 C64.139632,89.7294169 64.4217353,90.5939269 64.2357492,91.4230947 C64.0497632,92.2522625 63.4254377,92.9134564 62.6082921,93.1466584 C58.3828344,94.5546438 53.9588116,95.2754409 49.5049505,95.2815594 L49.5049505,95.2815594 Z" id="Path" fill="#031536"></path>
        </g>
    </g>
</svg>